<?xml version="1.0" encoding="UTF-8"?>
<svg id="Layer_1" data-name="Layer 1" xmlns="http://www.w3.org/2000/svg" viewBox="0 0 927.98 267.42">
  <defs>
    <style>
      .cls-1 {
        fill: none;
        stroke: #fff;
        stroke-linecap: round;
        stroke-miterlimit: 10;
        stroke-width: .65px;
      }

      .cls-2 {
        fill: #005e31;
      }
    </style>
  </defs>
  <path class="cls-2" d="M183.69,137.82c0-18.93-1.58-34.18-24.98-34.18-17.35,0-27.34,14.72-27.34,28.4v54.16c0,17.35,12.36,9.21,12.36,19.2,0,4.47-2.89,7.1-9.73,7.1h-39.44c-6.84,0-9.73-2.63-9.73-7.1,0-9.99,12.36-1.84,12.36-19.2v-64.16c0-20.51-13.94-10.52-13.94-22.61,0-9.99,28.92-15.25,34.18-15.25,7.89,0,8.94,5.26,9.46,21.04,11.57-13.41,25.77-21.04,43.38-21.04,32.61,0,47.6,16.3,47.6,51.54v50.49c0,17.35,12.36,9.21,12.36,19.2,0,4.47-2.89,7.1-9.73,7.1h-39.44c-6.84,0-9.73-2.63-9.73-7.1,0-9.99,12.36-1.84,12.36-19.2v-48.38Z"/>
  <path class="cls-2" d="M352.48,104.17c10.52,10.78,16.3,25.51,16.3,40.5,0,19.98-8.42,38.39-25.51,48.12,15.25,4.47,29.19,15.51,29.19,30.24,0,24.72-24.19,41.02-70.21,41.02-40.23,0-60.22-8.94-60.22-23.14,0-13.15,16.04-21.04,26.56-21.04,5,0,8.68,1.58,8.68,4.73,0,2.37-2.63,5-2.63,8.42,0,4.73,4.2,11.57,28.66,11.57,26.56,0,36.02-9.47,36.02-19.98s-9.21-18.14-18.67-22.35c-6.58,2.37-13.41,2.89-17.62,2.89-37.34,0-64.16-22.09-64.16-57.85,0-41.55,27.61-63.11,68.1-63.11,17.88,0,35.76,2.63,53.64,2.63,14.47,0,16.3,3.68,16.3,8.42,0,6.31-3.42,8.41-13.94,8.94h-10.52ZM303.84,99.96c-16.04,0-28.66,15.25-28.66,44.18s12.62,44.17,28.66,44.17,28.66-15.25,28.66-44.17-12.62-44.18-28.66-44.18Z"/>
  <path class="cls-2" d="M400.86,212.5c-6.84,0-9.73-2.63-9.73-7.1,0-9.99,12.36-1.84,12.36-19.2v-53.12c0-30.24-17.62-18.93-17.62-30.24,0-7.62,7.89-9.2,15.25-12.88,5.52-2.63,14.46-5.79,18.14-5.79,11.57,0,13.41,22.35,14.2,30.77h.53c6.05-14.47,19.2-30.77,34.97-30.77,10.78,0,17.62,8.15,17.62,18.41,0,7.1-3.16,14.72-12.36,14.72-3.94,0-10.52-4.2-15.78-4.2-10.78,0-20.77,18.14-20.77,37.86v35.23c0,17.35,12.36,9.21,12.36,19.2,0,4.47-2.89,7.1-9.73,7.1h-39.44Z"/>
  <path class="cls-2" d="M566.24,84.18c22.09,0,51.01,10.26,50.75,36.55-.26,35.5-59.95,41.81-87.3,43.39,3.16,19.72,18.67,32.08,36.81,32.08,15.51-.79,25.77-5.79,36.81-15.78,3.16-2.89,5-5.52,9.73-5.52,4.21,0,6.05,2.63,6.05,6.05,0,13.15-28.92,34.18-60.74,34.18-36.29,0-66.79-24.72-67.05-62.32.26-40.75,25.77-68.63,74.94-68.63ZM527.59,149.92c13.68-1.31,55.22-6.57,55.22-32.87,0-11.83-7.1-18.67-18.93-18.67-25.24,0-36.81,25.24-36.29,51.53Z"/>
  <path class="cls-2" d="M641.17,46.32c0-12.89-13.67-9.99-13.67-17.88,0-3.95,3.16-5.52,6.31-6.31,3.95-1.05,24.72-9.99,32.08-9.99,8.15,0,9.46,5.52,9.46,17.35v70.73c10.78-10.25,23.67-16.04,38.92-16.04,36.29,0,56.27,26.56,56.27,61.53,0,42.33-30.5,69.42-73.1,69.42-34.71,0-56.27-16.3-56.27-51.54V46.32ZM675.36,155.97c0,33.39,12.09,43.39,26.56,43.39,19.2,0,32.34-14.73,32.34-46.81s-12.62-51.54-29.45-51.54c-12.09,0-29.45,8.42-29.45,35.23v19.72Z"/>
  <path class="cls-2" d="M854.41,215.13c-39.44,0-71.25-26.56-71.25-65.48s31.82-65.47,71.25-65.47,71.26,26.56,71.26,65.47-31.82,65.48-71.26,65.48ZM854.41,199.35c19.72,0,34.97-16.83,34.97-49.7s-15.25-49.7-34.97-49.7-34.97,16.83-34.97,49.7,15.25,49.7,34.97,49.7Z"/>
  <path class="cls-2" d="M70.33,4.02c-2.21,6-4.65,11.9-6.57,18.02-2.1,6.73-3.04,13.74-5.9,20.29-.97,2.23-9.76,18.42-25.66,19.69-7.18.57-13-2.14-16.07-3.9-1.25.61-1.99,1.38-2.37,1.85-.78.96-1.18,2.02-1.24,2.18-.31.83-.25,1.11-.44,1.21-.45.24-1.78-.83-5.33-5.78,2.93-1.78,6.29-4.22,5.82-6.06-.17-.67-.79-1.03-1.03-1.18-3.8-2.49-4.9-17.23,2.26-29.7,1.89-3.29,4.43-6.31,7.68-8.96C32.93,2.38,56.28,2.95,70.33,4.02Z"/>
  <path class="cls-2" d="M43.33,74.82c2.75-.28,5.72-.22,8.05,1.49,3.51,2.59,4.02,10.51,4.21,14.59,1.53,32.93-1.54,66.93.42,99.9.68,2.59,1.9,5.09,4.19,6.6,3.08,2.04,7.93,2.23,8.56,6.76.92,6.67-3.34,8.72-9.19,9.2-14.55-.74-30.09,1-44.51.02-6.08-.42-10.41-2.28-9.55-9.25.61-5,7.63-4.94,10.44-8.35,1.94-2.36,2.31-5.5,2.74-8.41l.04-76.59c-.94-11.21-8.77-9-13.92-14.62-3.6-3.93-.49-8.33,3.6-10.01,8.13-3.34,26.79-10.51,34.94-11.33Z"/>
  <path class="cls-1" d="M16.11,60.4c.89-4.81,3.18-13.64,9.86-22.48,8.46-11.19,19.07-15.95,23.73-17.72"/>
  <path class="cls-2" d="M858.71,73.55c.46.98-1.12,1.94-2.43,5.51-.33.9-.69,2.29-1.01,3.32-.27.86-.42,2.16-.69,2.88-.07.19-.03.36-.3.43-.33.09-2.21-.56-2.36-.96-.44-1.19,2.08-6.37,1.93-7.07-.05-.22-1.92-2.9-2.16-3.06-.57-.4-1.32.15-1.89.23-3.15.46-10.62-.58-13.18-1.35-8.46-2.54-16.59-9.55-21.14-18.22-1.6-3.04-4.11-7.97-3.79-14.56.08-1.68.3-5.39,2.49-9.45,3.17-5.88,8.3-8.51,10.24-9.39-.47,1.14-1.68,4.5-.43,8.21,1.14,3.37,3.76,5.38,5.22,6.49,1,.77,1.83,1.23,2.08,1.37,6.48,3.69,16.28,16.62,19.66,25.25.19.48,1.72,2.86,2.35,6.2.35,1.88-.1,3.87,1.82,4.97.71-.57.22-1.08.24-1.7,0,0,0,0,0,0,2.46-.09,3.15.45,3.37.9Z"/>
  <path class="cls-2" d="M873.4,70.91c-4.88.38-13.81,1.39-15.59,6.04-1.12,2.91,1.65,4.18,1,9.16-.55,4.15-2.96,7.01-4.29,8.59-.41.49-5.49,6.46-7.57,5.29-2.16-1.21-1.61-9.47,2.13-15.11,1.41-2.13,3.43-4.12,5.07-8.32.77-1.98,1.05-3.54,1.19-3.91,6.92-18.15,29.81-23.7,32.19-24.24,11.26-2.56,21.02-.63,26.96,1.18-1.21,1.98-9.3,14.93-20.83,19.13-4.44,1.62-9.12,2.18-9.12,2.18-5.43.65-6.24-.38-11.14,0Z"/>
</svg>