<?xml version="1.0" encoding="UTF-8"?>
<svg id="Layer_1" data-name="Layer 1" xmlns="http://www.w3.org/2000/svg" viewBox="0 0 446.14 435.67">
  <defs>
    <style>
      .cls-1 {
        fill: #ec5824;
      }

      .cls-2 {
        fill: #231f20;
      }

      .cls-3 {
        fill: #005e31;
      }
    </style>
  </defs>
  <path class="cls-3" d="M102.7,144.35c-.6,1.6-1.73,6.87-1.04,8.35.69,1.48,4.9,6.04,6.26,7.47,1.07,1.13,2.83,2.64,4.09,3.84,1.06,1.01,2.84,2.16,3.68,3.06.23.24.5.3.41.74-.11.54-2.4,2.81-3.09,2.74-2.04-.21-7.75-7.57-8.88-7.85-.36-.09-5.58.72-5.99.95-.99.55-.73,2.02-1.02,2.91-1.99,6.14-6.08,14.28-11.39,18.16-5.01,3.66-7.72,3.88-13.39,1.83-1.06-.38-2.3-1.72-3.66-1.48-1.23.22-3.9,2.93-5.45,3.73-3.68,1.91-6.49,2.37-10.52,2.49-1.15.03-3.24-.43-4.18-.24-1.73.36-5.33,3.28-7.28,4.21-5.33,2.53-15.19,3.98-20.9,2.18-7.14-2.25-10.61-8.27-11.94-10.37-5.38-8.55-4.36-17.38-3.95-20.04,1.72,1.72,4.85,4.24,9.27,4.96,5.5.89,10.08-1.87,13.14-2.93,1.02-.35,2.38-1.55,3.47-2.04,8-3.57,17.2-4.3,25.85-4.78,2.94-.16,10.67.39,12.82-.65,1.41-.68,2.73-1.94,4.28-2.68,6.27-3.01,11.88-3.14,18.42-1.32,2.98.83,5.55,2.91,8.52.92-.32-1.44-1.4-1.09-2.3-1.56-2.01-1.05-41.63-18.74-40.6-42,.06-1.32.27-3.22,3.13-10.25,6.06-14.9,13.4-26.82,20.02-35.91,3.31,2.27,7.18,5.79,8.1,10.76,1.71,9.27-8.56,14.52-6.55,22.24,1.27,4.89,5.59,3.54,17.02,14.62,6.96,6.75,8.81,10.6,8.66,14.24-.08,1.78-.66,4.33-1.49,6.55-1.31,3.53-2.34,3.96-3.52,7.16Z"/>
  <path class="cls-1" d="M381.53,321.58c3.13,19.08,6.61,43.06,9.41,70.15.76,7.31,1.72,18.84-8.99,25.94-7.31,4.85-16.92,5.54-25.61,6.07-18.14,1.1-43.21,2.15-74.24,2.03-7.13-3.61-14.26-7.21-21.38-10.82-6.07,4.71-12.14,9.42-18.22,14.14-6.56.02-53.22.11-85.4-1.5-4.5-.23-13.1-.74-18-5.01-5.8-5.05-3.24-12.58-2.32-15.46,4.1-12.86,7.38-33.72,10.32-63.58-9.93-5.8-22.81-14.59-34.51-26.98,0,0-15.67-16.6-23.75-37.23-17.39-44.46,7.95-93.21,13.63-103.65,9.11-20.53,19.35-41.85,30.89-63.85,8.15-15.53,16.5-30.55,24.96-45.04-36.19,5.47-65.17-8.55-67.45-24.17C88.04,23.16,126.4-.29,156.29,5.08c16.69,3,28.58,14.61,30.84,28.95,6.6-3.82,53.59-30.16,111.98-23.8,48.06,5.24,85.74,30.66,94.19,59.14,13.28,44.8-52.87,73.11-31.46,107.53,14.22,22.86,47.2,16.47,67.61,46.88,3.72,5.55,20.76,30.94,2.8,59.83-14.05,22.61-41.41,34.32-50.71,37.95Z"/>
  <path class="cls-2" d="M284.98,83.54c.02.24-.06.48-.05.72s.24.48.24.71-.28.46-.3.7-.01.47-.05.7-.22.44-.27.67-.12.45-.18.67-.14.44-.21.66-.03.48-.12.7-.13.46-.23.67-.37.33-.48.54.05.58-.08.78-.24.42-.38.61-.56.16-.71.35-.05.59-.21.76-.61.06-.78.22-.26.41-.44.56-.48.14-.67.28-.34.31-.54.44-.19.6-.39.72-.53.01-.74.12-.39.27-.61.36-.54-.11-.76-.03-.41.24-.63.3-.46.07-.69.12-.45.12-.68.16-.42.37-.66.39-.49-.11-.72-.1-.47.27-.71.27-.47-.21-.71-.23-.49.12-.73.09-.43-.33-.66-.37-.46-.11-.68-.16-.52.08-.74,0-.49-.06-.71-.15-.31-.48-.53-.58-.44-.16-.65-.27-.48-.11-.68-.24-.38-.29-.57-.43-.22-.49-.4-.63-.39-.25-.57-.4-.35-.31-.51-.47-.29-.36-.44-.54-.45-.23-.59-.42-.14-.47-.27-.67-.42-.28-.54-.49-.04-.51-.15-.72-.53-.27-.62-.48.08-.54,0-.76-.14-.44-.21-.67-.17-.43-.22-.66-.36-.41-.4-.64-.05-.48-.08-.71-.04-.48-.05-.71.02-.48.02-.71.35-.45.37-.68-.34-.51-.31-.74.24-.44.29-.67,0-.49.06-.71.4-.37.48-.59.05-.48.14-.69.25-.4.36-.61-.01-.54.1-.74.23-.42.35-.62.21-.44.35-.63.61-.12.76-.3.32-.33.48-.5.27-.38.44-.54.14-.55.33-.7.39-.28.58-.42.52-.07.72-.2.29-.42.5-.54.36-.34.58-.44.52-.01.73-.1.44-.16.66-.24.5.03.72-.03.39-.33.62-.39.43-.28.66-.32.47-.09.71-.12.5.39.74.38.47-.47.7-.47.47.19.71.2.49-.05.72-.02.46.17.69.22.43.23.66.29.43.18.65.26.56-.17.78-.09.28.56.49.65.52,0,.73.11.39.26.6.38.54.04.74.18.36.32.55.47.11.59.29.75.49.16.66.32.2.45.35.63.3.35.44.54.34.32.48.52.44.28.57.48.28.39.39.6.18.45.27.66.26.42.34.64-.21.57-.14.79.38.38.43.61-.02.49.01.72.19.45.22.69Z"/>
  <path class="cls-2" d="M359.17,71.55c.02.24.17.45.18.69s.16.47.15.7-.12.47-.14.7-.08.46-.11.69.03.48-.02.71.05.51-.01.73-.3.41-.37.63-.21.42-.3.64-.08.48-.18.69-.33.36-.45.57-.39.31-.52.5.08.63-.06.82-.35.33-.5.51-.35.32-.51.5-.25.43-.42.59-.46.19-.65.34-.33.34-.52.48-.51.08-.71.21-.33.35-.54.47-.31.42-.53.53-.5.05-.72.14-.42.22-.64.3-.4.32-.63.39-.56-.31-.8-.26-.41.3-.65.34-.46.1-.7.12-.48-.12-.71-.11-.47.12-.7.12-.48.12-.71.1-.44-.32-.67-.35-.45-.1-.68-.14-.56.33-.79.28-.42-.27-.65-.34-.4-.28-.62-.37-.37-.31-.59-.41-.56.08-.77-.03-.45-.18-.65-.3-.29-.42-.49-.56-.32-.35-.5-.5-.37-.28-.55-.44-.58-.08-.75-.24-.34-.35-.49-.52-.02-.6-.16-.79-.48-.23-.62-.42-.11-.49-.24-.69-.22-.41-.33-.62-.45-.31-.54-.53-.21-.43-.3-.66-.17-.45-.24-.68-.02-.49-.07-.72.19-.51.15-.75-.35-.42-.38-.66-.14-.47-.15-.71.37-.48.38-.71-.37-.49-.35-.73.41-.43.44-.66-.05-.48,0-.71-.07-.51-.01-.73.21-.44.28-.66.14-.46.23-.67.37-.35.48-.56.12-.47.24-.67.32-.36.45-.55.14-.48.28-.67.5-.2.65-.38,0-.64.16-.81.32-.36.49-.52.61-.02.79-.17.2-.5.39-.64.35-.33.55-.46.48-.13.68-.25.37-.32.58-.42.55.09.77,0,.39-.27.61-.35.4-.29.63-.36.49.03.72-.02.41-.36.65-.4.51.27.75.25.45-.21.69-.22.47,0,.71,0,.47.06.7.08.48-.07.71-.04.5-.08.73-.04.42.3.65.36.51-.06.74.01.44.21.66.29.35.39.56.49.48.08.69.19.32.38.52.5.43.19.62.33.39.25.58.4.47.17.65.33.2.47.37.64.44.24.59.41.12.51.26.69.55.18.68.38.16.46.28.67.38.33.49.54-.09.56,0,.78.12.45.2.67.22.41.28.64.44.37.49.6-.1.5-.06.74-.13.48-.11.72Z"/>
</svg>